<?xml version="1.0" encoding="UTF-8" standalone="no"?>
<!-- Created with Inkscape (http://www.inkscape.org/) -->

<svg
   width="8.76863mm"
   height="7.7746105mm"
   viewBox="0 0 8.76863 7.7746105"
   version="1.1"
   id="svg14817"
   inkscape:version="1.2.2 (732a01da63, 2022-12-09)"
   sodipodi:docname="cm.svg"
   xmlns:inkscape="http://www.inkscape.org/namespaces/inkscape"
   xmlns:sodipodi="http://sodipodi.sourceforge.net/DTD/sodipodi-0.dtd"
   xmlns="http://www.w3.org/2000/svg"
   xmlns:svg="http://www.w3.org/2000/svg">
  <sodipodi:namedview
     id="namedview14819"
     pagecolor="#ffffff"
     bordercolor="#000000"
     borderopacity="0.25"
     inkscape:showpageshadow="2"
     inkscape:pageopacity="0.0"
     inkscape:pagecheckerboard="0"
     inkscape:deskcolor="#d1d1d1"
     inkscape:document-units="mm"
     showgrid="false"
     inkscape:zoom="0.75187991"
     inkscape:cx="314.54491"
     inkscape:cy="273.31492"
     inkscape:window-width="1920"
     inkscape:window-height="1002"
     inkscape:window-x="-8"
     inkscape:window-y="-8"
     inkscape:window-maximized="1"
     inkscape:current-layer="layer1" />
  <defs
     id="defs14814" />
  <g
     inkscape:label="Layer 1"
     inkscape:groupmode="layer"
     id="layer1"
     transform="translate(65.614173,-76.344922)">
    <path
       style="fill:#000000;stroke-width:0.017139"
       d="m -61.714978,84.098116 c -0.02227,-0.01671 -0.0384,-0.102538 -0.0733,-0.389913 -0.02461,-0.202668 -0.04602,-0.36918 -0.04756,-0.370024 -0.0015,-8.45e-4 -0.05294,-0.01501 -0.114216,-0.03149 -0.16138,-0.04338 -0.398768,-0.139586 -0.561134,-0.227399 l -0.141228,-0.07638 -0.270108,0.212936 c -0.148559,0.117115 -0.288252,0.222512 -0.310428,0.234216 -0.03837,0.02025 -0.05679,0.0049 -0.381343,-0.318194 -0.202972,-0.202051 -0.341022,-0.352573 -0.341022,-0.371832 0,-0.0178 0.09062,-0.147564 0.201383,-0.288371 0.110761,-0.140809 0.211459,-0.270351 0.223774,-0.287872 0.01951,-0.02776 0.01016,-0.05607 -0.07284,-0.220355 -0.05238,-0.103674 -0.09523,-0.196986 -0.09523,-0.20736 0,-0.01322 0.127748,-0.01886 0.42697,-0.01886 h 0.426971 l 0.07672,0.107119 c 0.527705,0.73683 1.511385,0.989172 2.351461,0.603217 0.253523,-0.116476 0.556072,-0.36854 0.722805,-0.602195 l 0.07717,-0.108141 h 0.42697 c 0.299222,0 0.426971,0.0056 0.426971,0.01886 0,0.01037 -0.04242,0.102825 -0.09427,0.205447 -0.05185,0.102622 -0.09426,0.189266 -0.09426,0.192542 0,0.0033 0.100192,0.132561 0.222649,0.287299 0.122458,0.154738 0.222721,0.297022 0.222807,0.316185 1.03e-4,0.0226 -0.119651,0.154107 -0.340865,0.374317 -0.321776,0.320316 -0.343237,0.338289 -0.380264,0.318473 -0.02158,-0.01155 -0.160326,-0.116244 -0.308319,-0.232653 l -0.269078,-0.211651 -0.199561,0.100866 c -0.109758,0.05548 -0.289948,0.130032 -0.400422,0.165679 -0.110473,0.03565 -0.206252,0.06919 -0.212841,0.07454 -0.0066,0.0053 -0.03157,0.171691 -0.05552,0.369647 -0.03444,0.284694 -0.04963,0.364397 -0.07271,0.381343 -0.02161,0.01587 -0.147393,0.02142 -0.485371,0.02142 -0.338307,0 -0.463581,-0.0055 -0.484755,-0.02142 z m -2.597426,-2.678645 c -0.203944,-0.02604 -0.329265,-0.04997 -0.357066,-0.06819 -0.08674,-0.05684 -0.0933,-0.104784 -0.08784,-0.642394 0.0048,-0.470654 0.0068,-0.496939 0.04084,-0.542952 0.0197,-0.0266 0.05501,-0.05778 0.07845,-0.0693 0.02345,-0.01152 0.186209,-0.03803 0.361689,-0.05891 l 0.319054,-0.03797 0.06224,-0.181034 c 0.03423,-0.09957 0.09743,-0.252236 0.14044,-0.339262 0.05424,-0.109737 0.07314,-0.164887 0.06167,-0.179959 -0.0091,-0.01195 -0.09935,-0.127649 -0.200566,-0.257104 -0.19528,-0.249754 -0.227062,-0.313582 -0.198792,-0.399239 0.01072,-0.03247 0.155488,-0.189961 0.382231,-0.415811 0.360781,-0.35936 0.365824,-0.363546 0.438039,-0.363546 0.09435,0 0.10201,0.0045 0.380386,0.224867 0.129571,0.102558 0.244189,0.186469 0.254706,0.186469 0.01052,0 0.08645,-0.03369 0.168746,-0.07486 0.08229,-0.04117 0.226749,-0.100945 0.321014,-0.132827 0.09426,-0.03188 0.174641,-0.05993 0.178615,-0.06234 0.004,-0.0024 0.02487,-0.15108 0.04644,-0.330394 0.02639,-0.219429 0.04891,-0.342446 0.06888,-0.376248 0.05263,-0.08909 0.08897,-0.09452 0.632337,-0.09452 0.657814,0 0.620872,-0.0239 0.675668,0.437044 0.01961,0.164963 0.03921,0.315358 0.04357,0.334211 0.006,0.02617 0.04542,0.04622 0.166427,0.08473 0.08718,0.02775 0.234322,0.08752 0.326971,0.132827 0.09265,0.04531 0.175734,0.08238 0.184631,0.08238 0.0089,0 0.124823,-0.086 0.257614,-0.191102 0.258381,-0.204514 0.331292,-0.242694 0.416692,-0.218201 0.06925,0.01986 0.75721,0.704774 0.781337,0.777881 0.02828,0.08568 -0.0044,0.149831 -0.205514,0.403967 -0.104842,0.132457 -0.194288,0.250383 -0.198768,0.262058 -0.0045,0.01168 0.02612,0.09024 0.06799,0.174587 0.04188,0.08435 0.104252,0.234818 0.138611,0.334376 l 0.06247,0.181016 0.317844,0.03741 c 0.174814,0.02057 0.337577,0.04709 0.361695,0.05893 0.02412,0.01184 0.05997,0.04331 0.07967,0.06993 0.03447,0.04658 0.03582,0.06785 0.03582,0.565588 0,0.586182 -2.2e-4,0.587218 -0.134218,0.63533 -0.0393,0.01411 -0.210276,0.0416 -0.379952,0.06108 -0.300065,0.03446 -0.38327,0.03537 -3.042173,0.03352 l -2.733671,-0.0019 z m 1.804101,-0.429024 c 0.01486,-0.01486 0.02693,-0.0556 0.02693,-0.09086 0,-0.0602 0.0048,-0.06598 0.08318,-0.09907 l 0.08318,-0.03514 0.06556,0.04888 c 0.03606,0.02688 0.07207,0.04888 0.08002,0.04888 0.0291,0 0.16883,-0.143205 0.178908,-0.183357 0.007,-0.02808 -4.72e-4,-0.05341 -0.02345,-0.07896 -0.05665,-0.063 -0.05965,-0.0785 -0.03011,-0.155833 0.02707,-0.07089 0.03282,-0.0753 0.11695,-0.08957 l 0.08848,-0.01501 0.0051,-0.135624 c 0.0055,-0.148601 -0.0026,-0.163409 -0.09075,-0.164308 -0.07013,-7.17e-4 -0.08648,-0.01414 -0.120338,-0.09875 -0.02905,-0.07261 -0.02898,-0.07321 0.01558,-0.131633 0.02462,-0.03228 0.04477,-0.06859 0.04477,-0.08067 0,-0.03077 -0.156034,-0.185976 -0.186963,-0.185976 -0.01399,0 -0.05359,0.01951 -0.088,0.04336 l -0.06257,0.04336 -0.07975,-0.03418 c -0.07291,-0.03125 -0.07975,-0.03926 -0.07975,-0.09338 0,-0.108371 -0.007,-0.113414 -0.156509,-0.113414 -0.129897,0 -0.136417,0.0019 -0.152417,0.04396 -0.0092,0.02418 -0.01672,0.06302 -0.01672,0.0863 0,0.03396 -0.01552,0.04899 -0.07838,0.07594 -0.08143,0.0349 -0.115228,0.02958 -0.160787,-0.02531 -0.01216,-0.01465 -0.03826,-0.02664 -0.05799,-0.02664 -0.04195,0 -0.200197,0.149278 -0.199177,0.187884 3.84e-4,0.01449 0.0228,0.05219 0.04981,0.08377 l 0.04912,0.05742 -0.0309,0.06902 c -0.03631,0.08111 -0.05892,0.09832 -0.129565,0.09868 -0.02875,1.37e-4 -0.06153,0.0095 -0.07284,0.02083 -0.02241,0.02241 -0.02831,0.232126 -0.0074,0.264832 0.0069,0.01086 0.04847,0.02512 0.09232,0.03169 0.07407,0.01109 0.08167,0.01704 0.107119,0.08366 0.0349,0.09138 0.03521,0.08832 -0.01546,0.154746 -0.02357,0.0309 -0.04285,0.06292 -0.04285,0.07116 0,0.02157 0.175391,0.196108 0.196513,0.195559 0.0097,-2.54e-4 0.04395,-0.02221 0.07599,-0.04879 l 0.05827,-0.04833 0.07884,0.02992 c 0.07483,0.0284 0.07955,0.03413 0.09275,0.112698 0.0076,0.04553 0.02307,0.0886 0.03428,0.09573 0.0394,0.02505 0.230507,0.01513 0.25909,-0.01346 z m -0.25163,-0.405029 c -0.03538,-0.0094 -0.10217,-0.05111 -0.148424,-0.0927 -0.138304,-0.124347 -0.174875,-0.296521 -0.09803,-0.461536 0.06975,-0.14979 0.196757,-0.230676 0.362201,-0.230676 0.307075,0 0.495265,0.304679 0.358147,0.57984 -0.08849,0.177578 -0.274433,0.258042 -0.47389,0.205072 z m 3.06688,0.418486 c 0.0112,-0.0071 0.02663,-0.0502 0.03428,-0.09573 0.0132,-0.07857 0.01792,-0.0843 0.09275,-0.112698 l 0.07884,-0.02992 0.05827,0.04833 c 0.03205,0.02658 0.06574,0.04853 0.07487,0.04879 0.0212,5.89e-4 0.197638,-0.17299 0.197638,-0.194435 0,-0.0089 -0.02036,-0.0428 -0.04524,-0.07542 -0.04403,-0.05772 -0.04458,-0.06143 -0.02058,-0.138719 0.02384,-0.07675 0.0275,-0.07992 0.10951,-0.09469 0.04667,-0.0084 0.09052,-0.02383 0.09744,-0.03429 0.02088,-0.03152 0.01495,-0.241697 -0.0074,-0.264097 -0.01131,-0.01131 -0.04409,-0.02068 -0.07284,-0.02083 -0.07044,-3.53e-4 -0.09326,-0.01758 -0.128992,-0.0974 l -0.03033,-0.06774 0.04924,-0.06604 c 0.02708,-0.03632 0.04924,-0.0727 0.04924,-0.08086 0,-0.03055 -0.160265,-0.184741 -0.192018,-0.184741 -0.01819,0 -0.05789,0.01893 -0.08821,0.04205 -0.05435,0.04146 -0.05626,0.04165 -0.133373,0.01392 -0.07497,-0.02696 -0.07888,-0.03176 -0.09369,-0.114896 l -0.01545,-0.08676 -0.140899,-0.005 c -0.155222,-0.0055 -0.150181,-0.0092 -0.162904,0.122012 -0.0038,0.03974 -0.01929,0.05478 -0.08559,0.08337 l -0.08089,0.03488 -0.05325,-0.04481 c -0.02929,-0.02464 -0.06589,-0.04481 -0.08134,-0.04481 -0.03486,0 -0.192087,0.152466 -0.192087,0.186267 0,0.0136 0.01997,0.05091 0.04437,0.0829 0.04398,0.05766 0.04412,0.0588 0.01558,0.130111 -0.03345,0.08359 -0.04994,0.09703 -0.119938,0.09775 -0.08811,8.99e-4 -0.09629,0.01571 -0.09075,0.164308 l 0.0051,0.135624 0.08655,0.01541 c 0.08083,0.0144 0.08855,0.02027 0.116908,0.08883 0.03183,0.07696 0.02457,0.114412 -0.03113,0.160638 -0.04854,0.04028 -0.03057,0.09525 0.05832,0.178391 0.04673,0.04371 0.09148,0.07947 0.09946,0.07947 0.008,0 0.04494,-0.02224 0.08214,-0.04942 l 0.06765,-0.04942 0.07713,0.03679 c 0.07023,0.0335 0.07801,0.04342 0.08704,0.110867 0.0055,0.04074 0.02088,0.08102 0.03428,0.0895 0.02953,0.01869 0.221907,0.02059 0.2504,0.0025 z m -0.258759,-0.424824 c -0.103362,-0.03787 -0.173745,-0.10071 -0.22259,-0.198729 -0.137119,-0.275161 0.05107,-0.57984 0.358147,-0.57984 0.165444,0 0.292449,0.08089 0.362201,0.230676 0.0753,0.161705 0.04561,0.313597 -0.08747,0.447503 -0.120466,0.121215 -0.260163,0.155396 -0.410291,0.10039 z m -4.331628,-2.709748 c -0.08903,-0.102019 -0.284313,-0.32817 -0.433973,-0.50256 -0.149661,-0.174389 -0.278055,-0.323948 -0.28532,-0.332353 -0.0075,-0.0087 -0.04143,-0.0015 -0.07848,0.01649 -0.0829,0.04035 -0.250793,0.04241 -0.322713,0.004 -0.22908,-0.12249 -0.28016,-0.402433 -0.10759,-0.58965 0.227773,-0.247104 0.635974,-0.08651 0.636167,0.250282 3.1e-5,0.05453 -0.01195,0.117386 -0.02842,0.149115 -0.01566,0.03017 -0.02848,0.06181 -0.02848,0.07032 0,0.01228 0.384721,0.34996 0.980167,0.860325 l 0.04999,0.04285 -0.109743,0.108362 -0.109744,0.108362 z m 5.833168,0.07506 -0.106981,-0.107941 0.514527,-0.443093 c 0.28299,-0.243701 0.514528,-0.450025 0.514528,-0.458498 0,-0.0085 -0.01281,-0.04009 -0.02848,-0.07025 -0.01647,-0.03173 -0.02845,-0.09459 -0.02842,-0.149115 1.93e-4,-0.337719 0.407766,-0.498067 0.636167,-0.250282 0.281468,0.305357 -0.06101,0.760143 -0.437787,0.581351 -0.03312,-0.01572 -0.06357,-0.0209 -0.07133,-0.01214 -0.0074,0.0084 -0.207972,0.240874 -0.445606,0.516598 -0.237633,0.275723 -0.433765,0.501315 -0.435848,0.501315 -0.0021,0 -0.05193,-0.04857 -0.110769,-0.10794 z"
       id="path14803" />
  </g>
</svg>
