<?xml version="1.0" encoding="UTF-8" standalone="no"?>
<!-- Created with Inkscape (http://www.inkscape.org/) -->

<svg
   width="28.68482mm"
   height="34.844433mm"
   viewBox="0 0 28.68482 34.844433"
   version="1.1"
   id="svg5"
   xml:space="preserve"
   inkscape:version="1.2.2 (732a01da63, 2022-12-09)"
   sodipodi:docname="rg.svg"
   xmlns:inkscape="http://www.inkscape.org/namespaces/inkscape"
   xmlns:sodipodi="http://sodipodi.sourceforge.net/DTD/sodipodi-0.dtd"
   xmlns="http://www.w3.org/2000/svg"
   xmlns:svg="http://www.w3.org/2000/svg"><sodipodi:namedview
     id="namedview7"
     pagecolor="#ffffff"
     bordercolor="#000000"
     borderopacity="0.25"
     inkscape:showpageshadow="2"
     inkscape:pageopacity="0.0"
     inkscape:pagecheckerboard="0"
     inkscape:deskcolor="#d1d1d1"
     inkscape:document-units="mm"
     showgrid="false"
     inkscape:zoom="0.72871773"
     inkscape:cx="-79.59186"
     inkscape:cy="367.08315"
     inkscape:window-width="1920"
     inkscape:window-height="1002"
     inkscape:window-x="-8"
     inkscape:window-y="-8"
     inkscape:window-maximized="1"
     inkscape:current-layer="layer1" /><defs
     id="defs2" /><g
     inkscape:label="Layer 1"
     inkscape:groupmode="layer"
     id="layer1"
     transform="translate(-31.367556,-51.532921)"><path
       style="fill:#000000;stroke-width:0.264583"
       d="m 42.744639,84.392978 v -1.984375 h -2.147526 c -2.097229,0 -2.143846,-0.01394 -1.990406,-0.595312 0.08642,-0.327422 0.364798,-1.398984 0.618628,-2.38125 l 0.461507,-1.785937 h 1.528898 c 1.320351,0 1.528899,-0.0679 1.528899,-0.497757 0,-0.37364 -0.313379,-0.575549 -1.256772,-0.809734 -6.158474,-1.528763 -10.120311,-6.291476 -10.120311,-12.166107 0,-5.545954 3.308804,-9.849043 9.057053,-11.778667 7.245458,-2.43222 15.493557,0.465832 18.405194,6.466848 3.404623,7.017085 -0.598337,15.332293 -8.330576,17.304805 -0.96974,0.247383 -1.272297,0.446292 -1.272297,0.836443 0,0.453081 0.246098,0.527072 2.142528,0.644169 l 2.142527,0.132291 -0.656953,2.315104 -0.656953,2.315104 h -1.55172 -1.55172 v 1.305087 c 0,1.012947 -0.103647,1.336588 -0.463021,1.445802 -0.734531,0.223229 -5.324075,1.217861 -5.619595,1.217861 -0.156356,0 -0.267384,-0.823989 -0.267384,-1.984375 z m 7.293294,-14.143959 c 3.386904,-1.667368 4.817481,-4.907465 3.662883,-8.296024 -0.56407,-1.655457 -2.414808,-3.451158 -4.314627,-4.186322 -2.284392,-0.88398 -5.481515,-0.829574 -7.567592,0.128777 -3.038588,1.395939 -4.354003,3.286252 -4.354003,6.256904 0,2.649736 1.015169,4.411406 3.386696,5.877091 2.476212,1.530383 6.336588,1.622651 9.186643,0.219574 z"
       id="path321" /></g></svg>
